# xmcd
#
# Track frame offsets:
#	150
#	14686
#	34160
#	46785
#	72206
#	86032
#	102157
#	118576
#	134216
#	149092
#
# Disc length: 2172 seconds
#
# Revision: 0
# Processed by: cddbd v1.5.2PL0 Copyright (c) Steve Scherf et al.
# Submitted via: audiograbber 1.83.01
#
DISCID=95087a0a
DTITLE=Hanging Tree - Hanging Tree 007
DYEAR=2011
DGENRE=Country
TTITLE0=Another Cowboy Who Think He Can Sing - Allen Karl
TTITLE1=I´m Still Hanging On  - Bart Connell
TTITLE2=Angels, Rainbows, Roses And You  - Wayne Robinson
TTITLE3=God Bless The Early Cowboys  - Billy Crain
TTITLE4=Lonelies Only Bar  - Allen Karl
TTITLE5=The Poor Boy Writes Songs  - Mike Headuck
TTITLE6=How Great Is God´s Love  - Jim Fullen
TTITLE7=Little Cheatin Woman  - Dean Holmen
TTITLE8=Doubtful Heart  - Dean Holmen
TTITLE9=No One Ever Get´s Me Over Yo - Randall Cousins
EXTD=
EXTT0=
EXTT1=
EXTT2=
EXTT3=
EXTT4=
EXTT5=
EXTT6=
EXTT7=
EXTT8=
EXTT9=
PLAYORDER=
